<svg xmlns="http://www.w3.org/2000/svg" data-name="Layer 1" viewBox="0 0 100 125" x="0px" y="0px"><title>Vehicles</title><path d="M91.61,65.16l.88-5.43,2.31-.2c-.12-2.79-.14-5.58-1.65-8a5,5,0,0,0-2.41-1.72,61.83,61.83,0,0,0-7.81-2.64C76.27,45.6,70.24,42.44,64,39.81c-2.12-.9-4.26-1.73-6.38-2.63a27.19,27.19,0,0,0-10.39-2,119.72,119.72,0,0,0-18.15,1,8.34,8.34,0,0,0-2.47.77c-5.7,2.77-11.29,5.77-17.37,7.66a3.08,3.08,0,0,0-2.17,2.28A37,37,0,0,0,5.18,58.56c0,1,.28,1.4,1.29,1.3a7.64,7.64,0,0,1,1.42.1l.93,5.19c-.94,0-2,0-3,0-.84,0-1.68-.09-2.51-.12C1.58,65,.58,64.32.39,62.55a45.39,45.39,0,0,1-.33-7.81A36.16,36.16,0,0,1,2.47,44.08a6.35,6.35,0,0,1,4-4c6.47-2.15,12.47-5.34,18.63-8.2a19.17,19.17,0,0,1,5.88-1.27,116.45,116.45,0,0,1,19.85-.49A30.19,30.19,0,0,1,60,32.46c3.33,1.33,6.67,2.66,9.91,4.19a93.27,93.27,0,0,0,16.44,6c1.91.5,3.76,1.28,5.64,1.91,4.53,1.52,6.9,4.82,7.51,9.4a75.25,75.25,0,0,1,.46,7.81,2.37,2.37,0,0,1-2.19,2.62C95.76,64.76,93.67,64.92,91.61,65.16Z"/><path d="M21.54,50.33a9.91,9.91,0,1,1-10,9.72A9.86,9.86,0,0,1,21.54,50.33Zm-.08,14.52a4.63,4.63,0,1,0,0-9.25,4.63,4.63,0,0,0,0,9.25Z"/><path d="M79,70.13a9.9,9.9,0,1,1,9.91-9.93A9.85,9.85,0,0,1,79,70.13Zm0-5.28a4.63,4.63,0,0,0,0-9.25,4.63,4.63,0,1,0,0,9.25Z"/><path d="M34.08,65.19l1-5.13h30.3l1,5.13Z"/><text x="0" y="115" fill="#000000" font-size="5px" font-weight="bold" font-family="'Helvetica Neue', Helvetica, Arial-Unicode, Arial, Sans-serif">Created by Rainbow Designs</text><text x="0" y="120" fill="#000000" font-size="5px" font-weight="bold" font-family="'Helvetica Neue', Helvetica, Arial-Unicode, Arial, Sans-serif">from the Noun Project</text></svg>