<svg xmlns="http://www.w3.org/2000/svg" xmlns:xlink="http://www.w3.org/1999/xlink" version="1.1" x="0px" y="0px" viewBox="0 0 1024 1280" style="enable-background:new 0 0 1024 1024;" xml:space="preserve"><g><polygon points="922,361.4 512,117.4 102,361.4 86.6,335.6 512,82.5 937.4,335.6  "/><rect x="98.7" y="485" width="30" height="439.1"/><polygon points="927.4,924.1 897.4,924.1 897.4,794.4 113.7,794.4 113.7,764.4 927.4,764.4  "/><path d="M927.4,794.4H370.7V608.8c0-21.5,17.5-39,39-39h348.2c93.5,0,169.5,76,169.5,169.5V794.4z M400.7,764.4   h496.7v-25.1c0-76.9-62.6-139.5-139.5-139.5H409.7c-5,0-9,4-9,9V764.4z"/><path d="M251.7,739.4c-46.8,0-84.8-38-84.8-84.8s38-84.8,84.8-84.8c46.8,0,84.8,38,84.8,84.8   S298.5,739.4,251.7,739.4z M251.7,599.8c-30.2,0-54.8,24.6-54.8,54.8s24.6,54.8,54.8,54.8c30.2,0,54.8-24.6,54.8-54.8   S281.9,599.8,251.7,599.8z"/></g><text x="0" y="1039" fill="#000000" font-size="5px" font-weight="bold" font-family="'Helvetica Neue', Helvetica, Arial-Unicode, Arial, Sans-serif">Created by IconPai</text><text x="0" y="1044" fill="#000000" font-size="5px" font-weight="bold" font-family="'Helvetica Neue', Helvetica, Arial-Unicode, Arial, Sans-serif">from the Noun Project</text></svg>